<svg width="40" height="40" viewBox="0 0 40 40" fill="none" xmlns="http://www.w3.org/2000/svg">
<path d="M19.9998 23.3334L16.6665 20L19.9998 16.6667L23.3332 20L19.9998 23.3334ZM16.4582 13.5417L12.2915 9.37502L17.6248 4.04169C17.9582 3.70835 18.3332 3.45835 18.7498 3.29169C19.1665 3.12502 19.5832 3.04169 19.9998 3.04169C20.4165 3.04169 20.8332 3.12502 21.2498 3.29169C21.6665 3.45835 22.0415 3.70835 22.3748 4.04169L27.7082 9.37502L23.5415 13.5417L19.9998 10L16.4582 13.5417ZM9.37484 27.7084L4.0415 22.375C3.70817 22.0417 3.45817 21.6667 3.2915 21.25C3.12484 20.8334 3.0415 20.4167 3.0415 20C3.0415 19.5834 3.12484 19.1667 3.2915 18.75C3.45817 18.3334 3.70817 17.9584 4.0415 17.625L9.37484 12.2917L13.5415 16.4584L9.99984 20L13.5415 23.5417L9.37484 27.7084ZM30.6248 27.7084L26.4582 23.5417L29.9998 20L26.4582 16.4584L30.6248 12.2917L35.9582 17.625C36.2915 17.9584 36.5415 18.3334 36.7082 18.75C36.8748 19.1667 36.9582 19.5834 36.9582 20C36.9582 20.4167 36.8748 20.8334 36.7082 21.25C36.5415 21.6667 36.2915 22.0417 35.9582 22.375L30.6248 27.7084ZM17.6248 35.9584L12.2915 30.625L16.4582 26.4584L19.9998 30L23.5415 26.4584L27.7082 30.625L22.3748 35.9584C22.0415 36.2917 21.6665 36.5417 21.2498 36.7084C20.8332 36.875 20.4165 36.9584 19.9998 36.9584C19.5832 36.9584 19.1665 36.875 18.7498 36.7084C18.3332 36.5417 17.9582 36.2917 17.6248 35.9584Z" fill="#03045E"/>
</svg>
