<svg width="40" height="41" viewBox="0 0 40 41" fill="none" xmlns="http://www.w3.org/2000/svg">
<path d="M20.0001 23.8333L16.6667 20.5L20.0001 17.1666L23.3334 20.5L20.0001 23.8333ZM16.4584 14.0416L12.2917 9.87496L17.6251 4.54163C17.9584 4.20829 18.3334 3.95829 18.7501 3.79163C19.1667 3.62496 19.5834 3.54163 20.0001 3.54163C20.4167 3.54163 20.8334 3.62496 21.2501 3.79163C21.6667 3.95829 22.0417 4.20829 22.3751 4.54163L27.7084 9.87496L23.5417 14.0416L20.0001 10.5L16.4584 14.0416ZM9.37508 28.2083L4.04175 22.875C3.70841 22.5416 3.45841 22.1666 3.29175 21.75C3.12508 21.3333 3.04175 20.9166 3.04175 20.5C3.04175 20.0833 3.12508 19.6666 3.29175 19.25C3.45841 18.8333 3.70841 18.4583 4.04175 18.125L9.37508 12.7916L13.5417 16.9583L10.0001 20.5L13.5417 24.0416L9.37508 28.2083ZM30.6251 28.2083L26.4584 24.0416L30.0001 20.5L26.4584 16.9583L30.6251 12.7916L35.9584 18.125C36.2917 18.4583 36.5417 18.8333 36.7084 19.25C36.8751 19.6666 36.9584 20.0833 36.9584 20.5C36.9584 20.9166 36.8751 21.3333 36.7084 21.75C36.5417 22.1666 36.2917 22.5416 35.9584 22.875L30.6251 28.2083ZM17.6251 36.4583L12.2917 31.125L16.4584 26.9583L20.0001 30.5L23.5417 26.9583L27.7084 31.125L22.3751 36.4583C22.0417 36.7916 21.6667 37.0416 21.2501 37.2083C20.8334 37.375 20.4167 37.4583 20.0001 37.4583C19.5834 37.4583 19.1667 37.375 18.7501 37.2083C18.3334 37.0416 17.9584 36.7916 17.6251 36.4583Z" fill="#F3F7FE"/>
</svg>
