<svg width="20" height="20" viewBox="0 0 20 20" fill="none" xmlns="http://www.w3.org/2000/svg">
<path d="M9.49984 10L12.7498 6.75002C12.9026 6.59724 12.979 6.4028 12.979 6.16669C12.979 5.93058 12.9026 5.73613 12.7498 5.58335C12.5971 5.43058 12.4026 5.35419 12.1665 5.35419C11.9304 5.35419 11.7359 5.43058 11.5832 5.58335L7.74984 9.41669C7.6665 9.50002 7.60748 9.5903 7.57275 9.68752C7.53803 9.78474 7.52067 9.88891 7.52067 10C7.52067 10.1111 7.53803 10.2153 7.57275 10.3125C7.60748 10.4097 7.6665 10.5 7.74984 10.5834L11.5832 14.4167C11.7359 14.5695 11.9304 14.6459 12.1665 14.6459C12.4026 14.6459 12.5971 14.5695 12.7498 14.4167C12.9026 14.2639 12.979 14.0695 12.979 13.8334C12.979 13.5972 12.9026 13.4028 12.7498 13.25L9.49984 10Z" fill="#5F6368"/>
</svg>
