<svg width="40" height="40" viewBox="0 0 40 40" fill="none" xmlns="http://www.w3.org/2000/svg">
<path d="M20.9998 20L14.4998 13.5C14.1943 13.1945 14.0415 12.8056 14.0415 12.3334C14.0415 11.8612 14.1943 11.4723 14.4998 11.1667C14.8054 10.8612 15.1943 10.7084 15.6665 10.7084C16.1387 10.7084 16.5276 10.8612 16.8332 11.1667L24.4998 18.8334C24.6665 19 24.7846 19.1806 24.854 19.375C24.9234 19.5695 24.9582 19.7778 24.9582 20C24.9582 20.2223 24.9234 20.4306 24.854 20.625C24.7846 20.8195 24.6665 21 24.4998 21.1667L16.8332 28.8334C16.5276 29.1389 16.1387 29.2917 15.6665 29.2917C15.1943 29.2917 14.8054 29.1389 14.4998 28.8334C14.1943 28.5278 14.0415 28.1389 14.0415 27.6667C14.0415 27.1945 14.1943 26.8056 14.4998 26.5L20.9998 20Z" fill="#F3F7FE"/>
</svg>
