<svg width="12" height="13" viewBox="0 0 12 13" fill="none" xmlns="http://www.w3.org/2000/svg">
<path d="M2.41289 6.51251L4.35039 8.45001C4.44206 8.54168 4.48789 8.65835 4.48789 8.80001C4.48789 8.94168 4.44206 9.05835 4.35039 9.15001C4.25872 9.24168 4.14206 9.28751 4.00039 9.28751C3.85872 9.28751 3.74206 9.24168 3.65039 9.15001L1.35039 6.85001C1.30039 6.80001 1.26497 6.74585 1.24414 6.68751C1.22331 6.62918 1.21289 6.56668 1.21289 6.50001C1.21289 6.43335 1.22331 6.37085 1.24414 6.31251C1.26497 6.25418 1.30039 6.20001 1.35039 6.15001L3.65039 3.85001C3.75039 3.75001 3.86914 3.70001 4.00664 3.70001C4.14414 3.70001 4.26289 3.75001 4.36289 3.85001C4.46289 3.95001 4.51289 4.06876 4.51289 4.20626C4.51289 4.34376 4.46289 4.46251 4.36289 4.56251L2.41289 6.51251ZM9.58789 6.48751L7.65039 4.55001C7.55872 4.45835 7.51289 4.34168 7.51289 4.20001C7.51289 4.05835 7.55872 3.94168 7.65039 3.85001C7.74206 3.75835 7.85872 3.71251 8.00039 3.71251C8.14206 3.71251 8.25872 3.75835 8.35039 3.85001L10.6504 6.15001C10.7004 6.20001 10.7358 6.25418 10.7566 6.31251C10.7775 6.37085 10.7879 6.43335 10.7879 6.50001C10.7879 6.56668 10.7775 6.62918 10.7566 6.68751C10.7358 6.74585 10.7004 6.80001 10.6504 6.85001L8.35039 9.15001C8.25039 9.25001 8.13372 9.29793 8.00039 9.29376C7.86706 9.2896 7.75039 9.23751 7.65039 9.13751C7.55039 9.03751 7.50039 8.91876 7.50039 8.78126C7.50039 8.64376 7.55039 8.52501 7.65039 8.42501L9.58789 6.48751Z" fill="#F3F7FE"/>
</svg>
