<svg width="12" height="13" viewBox="0 0 12 13" fill="none" xmlns="http://www.w3.org/2000/svg">
<path d="M2.4124 6.51251L4.3499 8.45001C4.44157 8.54168 4.4874 8.65835 4.4874 8.80001C4.4874 8.94168 4.44157 9.05835 4.3499 9.15001C4.25824 9.24168 4.14157 9.28751 3.9999 9.28751C3.85824 9.28751 3.74157 9.24168 3.6499 9.15001L1.3499 6.85001C1.2999 6.80001 1.26449 6.74585 1.24365 6.68751C1.22282 6.62918 1.2124 6.56668 1.2124 6.50001C1.2124 6.43335 1.22282 6.37085 1.24365 6.31251C1.26449 6.25418 1.2999 6.20001 1.3499 6.15001L3.6499 3.85001C3.7499 3.75001 3.86865 3.70001 4.00615 3.70001C4.14365 3.70001 4.2624 3.75001 4.3624 3.85001C4.4624 3.95001 4.5124 4.06876 4.5124 4.20626C4.5124 4.34376 4.4624 4.46251 4.3624 4.56251L2.4124 6.51251ZM9.5874 6.48751L7.6499 4.55001C7.55824 4.45835 7.5124 4.34168 7.5124 4.20001C7.5124 4.05835 7.55824 3.94168 7.6499 3.85001C7.74157 3.75835 7.85824 3.71251 7.9999 3.71251C8.14157 3.71251 8.25824 3.75835 8.3499 3.85001L10.6499 6.15001C10.6999 6.20001 10.7353 6.25418 10.7562 6.31251C10.777 6.37085 10.7874 6.43335 10.7874 6.50001C10.7874 6.56668 10.777 6.62918 10.7562 6.68751C10.7353 6.74585 10.6999 6.80001 10.6499 6.85001L8.3499 9.15001C8.2499 9.25001 8.13324 9.29793 7.9999 9.29376C7.86657 9.2896 7.7499 9.23751 7.6499 9.13751C7.5499 9.03751 7.4999 8.91876 7.4999 8.78126C7.4999 8.64376 7.5499 8.52501 7.6499 8.42501L9.5874 6.48751Z" fill="#F3F7FE"/>
</svg>
