<svg width="20" height="20" viewBox="0 0 20 20" fill="none" xmlns="http://www.w3.org/2000/svg">
<path d="M8.33357 5C7.87524 5 7.48287 4.83681 7.15649 4.51042C6.8301 4.18403 6.6669 3.79167 6.6669 3.33334C6.6669 2.875 6.8301 2.48264 7.15649 2.15626C7.48287 1.82987 7.87524 1.66667 8.33357 1.66667C8.7919 1.66667 9.18426 1.82987 9.51065 2.15626C9.83704 2.48264 10.0002 2.875 10.0002 3.33334C10.0002 3.79167 9.83704 4.18403 9.51065 4.51042C9.18426 4.83681 8.7919 5 8.33357 5ZM13.7502 15C14.3336 15 14.8266 14.7986 15.2294 14.3958C15.6322 13.9931 15.8336 13.5 15.8336 12.9167C15.8336 12.3333 15.6322 11.8403 15.2294 11.4375C14.8266 11.0347 14.3336 10.8333 13.7502 10.8333C13.1669 10.8333 12.6738 11.0347 12.2711 11.4375C11.8683 11.8403 11.6669 12.3333 11.6669 12.9167C11.6669 13.5 11.8683 13.9931 12.2711 14.3958C12.6738 14.7986 13.1669 15 13.7502 15ZM15.7502 16.0833C15.4447 16.2778 15.1252 16.4236 14.7919 16.5208C14.4586 16.6181 14.1113 16.6667 13.7502 16.6667C12.7086 16.6667 11.8232 16.3021 11.094 15.5729C10.3648 14.8438 10.0002 13.9583 10.0002 12.9167C10.0002 11.875 10.3648 10.9896 11.094 10.2604C11.8232 9.53125 12.7086 9.16667 13.7502 9.16667C14.7919 9.16667 15.6773 9.53125 16.4065 10.2604C17.1357 10.9896 17.5002 11.875 17.5002 12.9167C17.5002 13.2778 17.4516 13.625 17.3544 13.9583C17.2572 14.2917 17.1113 14.6111 16.9169 14.9167L18.5836 16.5833C18.7363 16.7361 18.8127 16.9306 18.8127 17.1667C18.8127 17.4028 18.7363 17.5972 18.5836 17.75C18.4308 17.9028 18.2363 17.9792 18.0002 17.9792C17.7641 17.9792 17.5697 17.9028 17.4169 17.75L15.7502 16.0833ZM9.1669 15.8125C9.37524 16.1458 9.62176 16.4514 9.90649 16.7292C10.1912 17.0069 10.5002 17.2569 10.8336 17.4792V17.5C10.8336 17.7361 10.7537 17.934 10.594 18.0938C10.4343 18.2535 10.2363 18.3333 10.0002 18.3333C9.76412 18.3333 9.56621 18.2535 9.40649 18.0938C9.24676 17.934 9.1669 17.7361 9.1669 17.5V15.8125ZM7.50024 13.3333V17.5C7.50024 17.7361 7.42037 17.934 7.26065 18.0938C7.10093 18.2535 6.90301 18.3333 6.6669 18.3333C6.43079 18.3333 6.23287 18.2535 6.07315 18.0938C5.91343 17.934 5.83357 17.7361 5.83357 17.5V7.5C5.13912 7.44445 4.45162 7.36806 3.77107 7.27084C3.09051 7.17362 2.40996 7.04862 1.7294 6.89584C1.49329 6.84028 1.30232 6.70834 1.15649 6.5C1.01065 6.29167 0.972458 6.06945 1.0419 5.83334C1.11135 5.59723 1.25371 5.42362 1.46899 5.3125C1.68426 5.20139 1.90996 5.17362 2.14607 5.22917C3.15996 5.46528 4.18426 5.625 5.21899 5.70834C6.25371 5.79167 7.2919 5.83334 8.33357 5.83334C9.37524 5.83334 10.4134 5.79167 11.4482 5.70834C12.4829 5.625 13.5072 5.46528 14.5211 5.22917C14.7572 5.17362 14.9829 5.20139 15.1982 5.3125C15.4134 5.42362 15.5558 5.59723 15.6252 5.83334C15.6947 6.06945 15.6565 6.29167 15.5107 6.5C15.3648 6.70834 15.1738 6.84028 14.9377 6.89584C14.2572 7.04862 13.5766 7.17362 12.8961 7.27084C12.2155 7.36806 11.528 7.44445 10.8336 7.5V8.35417C10.0836 8.84028 9.4794 9.48264 9.02107 10.2813C8.56274 11.0799 8.33357 11.9583 8.33357 12.9167V13.125C8.33357 13.1944 8.34051 13.2639 8.3544 13.3333H7.50024Z" fill="#03045E"/>
</svg>
