<svg width="80" height="80" viewBox="0 0 80 80" fill="none" xmlns="http://www.w3.org/2000/svg">
<path d="M40 70C31.6111 70 24.5139 68.7083 18.7083 66.125C12.9028 63.5417 10 60.3889 10 56.6667V23.3333C10 19.6667 12.9306 16.5278 18.7917 13.9167C24.6528 11.3056 31.7222 10 40 10C48.2778 10 55.3472 11.3056 61.2083 13.9167C67.0694 16.5278 70 19.6667 70 23.3333V56.6667C70 60.3889 67.0972 63.5417 61.2917 66.125C55.4861 68.7083 48.3889 70 40 70ZM40 30.0833C44.9444 30.0833 49.9167 29.375 54.9167 27.9583C59.9167 26.5417 62.7222 25.0278 63.3333 23.4167C62.7222 21.8056 59.9306 20.2778 54.9583 18.8333C49.9861 17.3889 45 16.6667 40 16.6667C34.9444 16.6667 29.9861 17.375 25.125 18.7917C20.2639 20.2083 17.4444 21.75 16.6667 23.4167C17.4444 25.0833 20.2639 26.6111 25.125 28C29.9861 29.3889 34.9444 30.0833 40 30.0833ZM40 46.6667C42.3333 46.6667 44.5833 46.5556 46.75 46.3333C48.9167 46.1111 50.9861 45.7917 52.9583 45.375C54.9306 44.9583 56.7917 44.4444 58.5417 43.8333C60.2917 43.2222 61.8889 42.5278 63.3333 41.75V31.75C61.8889 32.5278 60.2917 33.2222 58.5417 33.8333C56.7917 34.4444 54.9306 34.9583 52.9583 35.375C50.9861 35.7917 48.9167 36.1111 46.75 36.3333C44.5833 36.5556 42.3333 36.6667 40 36.6667C37.6667 36.6667 35.3889 36.5556 33.1667 36.3333C30.9444 36.1111 28.8472 35.7917 26.875 35.375C24.9028 34.9583 23.0556 34.4444 21.3333 33.8333C19.6111 33.2222 18.0556 32.5278 16.6667 31.75V41.75C18.0556 42.5278 19.6111 43.2222 21.3333 43.8333C23.0556 44.4444 24.9028 44.9583 26.875 45.375C28.8472 45.7917 30.9444 46.1111 33.1667 46.3333C35.3889 46.5556 37.6667 46.6667 40 46.6667ZM40 63.3333C42.5556 63.3333 45.1528 63.1389 47.7917 62.75C50.4306 62.3611 52.8611 61.8472 55.0833 61.2083C57.3056 60.5694 59.1667 59.8472 60.6667 59.0417C62.1667 58.2361 63.0556 57.4167 63.3333 56.5833V48.4167C61.8889 49.1944 60.2917 49.8889 58.5417 50.5C56.7917 51.1111 54.9306 51.625 52.9583 52.0417C50.9861 52.4583 48.9167 52.7778 46.75 53C44.5833 53.2222 42.3333 53.3333 40 53.3333C37.6667 53.3333 35.3889 53.2222 33.1667 53C30.9444 52.7778 28.8472 52.4583 26.875 52.0417C24.9028 51.625 23.0556 51.1111 21.3333 50.5C19.6111 49.8889 18.0556 49.1944 16.6667 48.4167V56.6667C16.9444 57.5 17.8194 58.3056 19.2917 59.0833C20.7639 59.8611 22.6111 60.5694 24.8333 61.2083C27.0556 61.8472 29.5 62.3611 32.1667 62.75C34.8333 63.1389 37.4444 63.3333 40 63.3333Z" fill="#03045E"/>
</svg>
