<svg width="12" height="13" viewBox="0 0 12 13" fill="none" xmlns="http://www.w3.org/2000/svg">
<path d="M7.5 10.5C7.35833 10.5 7.23958 10.4521 7.14375 10.3563C7.04792 10.2604 7 10.1417 7 10C7 9.85833 7.04792 9.73958 7.14375 9.64375C7.23958 9.54792 7.35833 9.5 7.5 9.5H8.5C8.64167 9.5 8.76042 9.45208 8.85625 9.35625C8.95208 9.26042 9 9.14167 9 9V8C9 7.68333 9.09167 7.39583 9.275 7.1375C9.45833 6.87917 9.7 6.69583 10 6.5875V6.4125C9.7 6.30417 9.45833 6.12083 9.275 5.8625C9.09167 5.60417 9 5.31667 9 5V4C9 3.85833 8.95208 3.73958 8.85625 3.64375C8.76042 3.54792 8.64167 3.5 8.5 3.5H7.5C7.35833 3.5 7.23958 3.45208 7.14375 3.35625C7.04792 3.26042 7 3.14167 7 3C7 2.85833 7.04792 2.73958 7.14375 2.64375C7.23958 2.54792 7.35833 2.5 7.5 2.5H8.5C8.91667 2.5 9.27083 2.64583 9.5625 2.9375C9.85417 3.22917 10 3.58333 10 4V5C10 5.14167 10.0479 5.26042 10.1438 5.35625C10.2396 5.45208 10.3583 5.5 10.5 5.5C10.6417 5.5 10.7604 5.54792 10.8562 5.64375C10.9521 5.73958 11 5.85833 11 6V7C11 7.14167 10.9521 7.26042 10.8562 7.35625C10.7604 7.45208 10.6417 7.5 10.5 7.5C10.3583 7.5 10.2396 7.54792 10.1438 7.64375C10.0479 7.73958 10 7.85833 10 8V9C10 9.41667 9.85417 9.77083 9.5625 10.0625C9.27083 10.3542 8.91667 10.5 8.5 10.5H7.5ZM3.5 10.5C3.08333 10.5 2.72917 10.3542 2.4375 10.0625C2.14583 9.77083 2 9.41667 2 9V8C2 7.85833 1.95208 7.73958 1.85625 7.64375C1.76042 7.54792 1.64167 7.5 1.5 7.5C1.35833 7.5 1.23958 7.45208 1.14375 7.35625C1.04792 7.26042 1 7.14167 1 7V6C1 5.85833 1.04792 5.73958 1.14375 5.64375C1.23958 5.54792 1.35833 5.5 1.5 5.5C1.64167 5.5 1.76042 5.45208 1.85625 5.35625C1.95208 5.26042 2 5.14167 2 5V4C2 3.58333 2.14583 3.22917 2.4375 2.9375C2.72917 2.64583 3.08333 2.5 3.5 2.5H4.5C4.64167 2.5 4.76042 2.54792 4.85625 2.64375C4.95208 2.73958 5 2.85833 5 3C5 3.14167 4.95208 3.26042 4.85625 3.35625C4.76042 3.45208 4.64167 3.5 4.5 3.5H3.5C3.35833 3.5 3.23958 3.54792 3.14375 3.64375C3.04792 3.73958 3 3.85833 3 4V5C3 5.31667 2.90833 5.60417 2.725 5.8625C2.54167 6.12083 2.3 6.30417 2 6.4125V6.5875C2.3 6.69583 2.54167 6.87917 2.725 7.1375C2.90833 7.39583 3 7.68333 3 8V9C3 9.14167 3.04792 9.26042 3.14375 9.35625C3.23958 9.45208 3.35833 9.5 3.5 9.5H4.5C4.64167 9.5 4.76042 9.54792 4.85625 9.64375C4.95208 9.73958 5 9.85833 5 10C5 10.1417 4.95208 10.2604 4.85625 10.3563C4.76042 10.4521 4.64167 10.5 4.5 10.5H3.5Z" fill="#F3F7FE"/>
</svg>
