<svg width="20" height="20" viewBox="0 0 20 20" fill="none" xmlns="http://www.w3.org/2000/svg">
<path d="M9.16667 16.1875V10.4792L4.16667 7.58334V13.2917L9.16667 16.1875ZM10.8333 16.1875L15.8333 13.2917V7.58334L10.8333 10.4792V16.1875ZM10 9.04167L14.9375 6.1875L10 3.33334L5.0625 6.1875L10 9.04167ZM3.33333 14.75C3.06944 14.5972 2.86458 14.3958 2.71875 14.1458C2.57292 13.8958 2.5 13.6181 2.5 13.3125V6.6875C2.5 6.38195 2.57292 6.10417 2.71875 5.85417C2.86458 5.60417 3.06944 5.40278 3.33333 5.25L9.16667 1.89584C9.43056 1.74306 9.70833 1.66667 10 1.66667C10.2917 1.66667 10.5694 1.74306 10.8333 1.89584L16.6667 5.25C16.9306 5.40278 17.1354 5.60417 17.2812 5.85417C17.4271 6.10417 17.5 6.38195 17.5 6.6875V13.3125C17.5 13.6181 17.4271 13.8958 17.2812 14.1458C17.1354 14.3958 16.9306 14.5972 16.6667 14.75L10.8333 18.1042C10.5694 18.2569 10.2917 18.3333 10 18.3333C9.70833 18.3333 9.43056 18.2569 9.16667 18.1042L3.33333 14.75Z" fill="#03045E"/>
</svg>
