<svg width="80" height="80" viewBox="0 0 80 80" fill="none" xmlns="http://www.w3.org/2000/svg">
<path d="M36.6667 64.75V41.9167L16.6667 30.3334V53.1667L36.6667 64.75ZM43.3333 64.75L63.3333 53.1667V30.3334L43.3333 41.9167V64.75ZM40 36.1667L59.75 24.75L40 13.3334L20.25 24.75L40 36.1667ZM13.3333 59C12.2778 58.3889 11.4583 57.5834 10.875 56.5834C10.2917 55.5834 10 54.4722 10 53.25V26.75C10 25.5278 10.2917 24.4167 10.875 23.4167C11.4583 22.4167 12.2778 21.6111 13.3333 21L36.6667 7.58335C37.7222 6.97224 38.8333 6.66669 40 6.66669C41.1667 6.66669 42.2778 6.97224 43.3333 7.58335L66.6667 21C67.7222 21.6111 68.5417 22.4167 69.125 23.4167C69.7083 24.4167 70 25.5278 70 26.75V53.25C70 54.4722 69.7083 55.5834 69.125 56.5834C68.5417 57.5834 67.7222 58.3889 66.6667 59L43.3333 72.4167C42.2778 73.0278 41.1667 73.3334 40 73.3334C38.8333 73.3334 37.7222 73.0278 36.6667 72.4167L13.3333 59Z" fill="#480CA8"/>
</svg>
