<svg width="20" height="20" viewBox="0 0 20 20" fill="none" xmlns="http://www.w3.org/2000/svg">
<path d="M10.7917 9.99998L14.0208 14.5208C14.2153 14.7986 14.2396 15.0868 14.0938 15.3854C13.9479 15.684 13.7014 15.8333 13.3542 15.8333C13.2153 15.8333 13.0833 15.8021 12.9583 15.7396C12.8333 15.6771 12.7361 15.5903 12.6667 15.4791L8.75 9.99998L12.6667 4.52081C12.7361 4.4097 12.8333 4.3229 12.9583 4.2604C13.0833 4.1979 13.2153 4.16665 13.3542 4.16665C13.6875 4.16665 13.9306 4.31595 14.0833 4.61456C14.2361 4.91317 14.2153 5.20137 14.0208 5.47915L10.7917 9.99998ZM5.83333 9.99998L9.0625 14.5208C9.25694 14.7986 9.28125 15.0868 9.13542 15.3854C8.98958 15.684 8.74306 15.8333 8.39583 15.8333C8.25694 15.8333 8.125 15.8021 8 15.7396C7.875 15.6771 7.77778 15.5903 7.70833 15.4791L3.79167 9.99998L7.70833 4.52081C7.77778 4.4097 7.875 4.3229 8 4.2604C8.125 4.1979 8.25694 4.16665 8.39583 4.16665C8.72917 4.16665 8.97222 4.31595 9.125 4.61456C9.27778 4.91317 9.25694 5.20137 9.0625 5.47915L5.83333 9.99998Z" fill="#5F6368"/>
</svg>
