<svg width="20" height="20" viewBox="0 0 20 20" fill="none" xmlns="http://www.w3.org/2000/svg">
<path d="M9.20833 10L5.97917 5.47919C5.78472 5.20141 5.76042 4.91321 5.90625 4.6146C6.05208 4.31599 6.29861 4.16669 6.64583 4.16669C6.78472 4.16669 6.91667 4.19794 7.04167 4.26044C7.16667 4.32294 7.26389 4.40974 7.33333 4.52085L11.25 10L7.33333 15.4792C7.26389 15.5903 7.16667 15.6771 7.04167 15.7396C6.91667 15.8021 6.78472 15.8334 6.64583 15.8334C6.3125 15.8334 6.06944 15.684 5.91667 15.3854C5.76389 15.0868 5.78472 14.7986 5.97917 14.5209L9.20833 10ZM14.1667 10L10.9375 5.47919C10.7431 5.20141 10.7188 4.91321 10.8646 4.6146C11.0104 4.31599 11.2569 4.16669 11.6042 4.16669C11.7431 4.16669 11.875 4.19794 12 4.26044C12.125 4.32294 12.2222 4.40974 12.2917 4.52085L16.2083 10L12.2917 15.4792C12.2222 15.5903 12.125 15.6771 12 15.7396C11.875 15.8021 11.7431 15.8334 11.6042 15.8334C11.2708 15.8334 11.0278 15.684 10.875 15.3854C10.7222 15.0868 10.7431 14.7986 10.9375 14.5209L14.1667 10Z" fill="#5F6368"/>
</svg>
