<svg width="40" height="41" viewBox="0 0 40 41" fill="none" xmlns="http://www.w3.org/2000/svg">
<path d="M8.3335 37.1667C8.3335 33.3056 9.13905 30.1736 10.7502 27.7708C12.3613 25.3681 14.5835 22.9444 17.4168 20.5C14.5835 18.0556 12.3613 15.6319 10.7502 13.2292C9.13905 10.8264 8.3335 7.69444 8.3335 3.83333V3.41667C8.3335 2.94444 8.49322 2.54861 8.81266 2.22917C9.13211 1.90972 9.52794 1.75 10.0002 1.75C10.4724 1.75 10.8682 1.90972 11.1877 2.22917C11.5071 2.54861 11.6668 2.94444 11.6668 3.41667V3.83333C11.6668 4.13889 11.6738 4.42361 11.6877 4.6875C11.7016 4.95139 11.7224 5.22222 11.7502 5.5H28.2502C28.2779 5.22222 28.2988 4.95139 28.3127 4.6875C28.3265 4.42361 28.3335 4.13889 28.3335 3.83333V3.41667C28.3335 2.94444 28.4932 2.54861 28.8127 2.22917C29.1321 1.90972 29.5279 1.75 30.0002 1.75C30.4724 1.75 30.8682 1.90972 31.1877 2.22917C31.5071 2.54861 31.6668 2.94444 31.6668 3.41667V3.83333C31.6668 7.69444 30.8613 10.8264 29.2502 13.2292C27.639 15.6319 25.4168 18.0556 22.5835 20.5C25.4168 22.9444 27.639 25.3681 29.2502 27.7708C30.8613 30.1736 31.6668 33.3056 31.6668 37.1667V37.5833C31.6668 38.0556 31.5071 38.4514 31.1877 38.7708C30.8682 39.0903 30.4724 39.25 30.0002 39.25C29.5279 39.25 29.1321 39.0903 28.8127 38.7708C28.4932 38.4514 28.3335 38.0556 28.3335 37.5833V37.1667C28.3335 36.8611 28.3265 36.5764 28.3127 36.3125C28.2988 36.0486 28.2779 35.7778 28.2502 35.5H11.7502C11.7224 35.7778 11.7016 36.0486 11.6877 36.3125C11.6738 36.5764 11.6668 36.8611 11.6668 37.1667V37.5833C11.6668 38.0556 11.5071 38.4514 11.1877 38.7708C10.8682 39.0903 10.4724 39.25 10.0002 39.25C9.52794 39.25 9.13211 39.0903 8.81266 38.7708C8.49322 38.4514 8.3335 38.0556 8.3335 37.5833V37.1667ZM14.0835 12.1667H25.9168C26.2779 11.6389 26.5904 11.1111 26.8543 10.5833C27.1182 10.0556 27.3613 9.47222 27.5835 8.83333H12.4168C12.6391 9.44444 12.8821 10.0208 13.146 10.5625C13.4099 11.1042 13.7224 11.6389 14.0835 12.1667ZM20.0002 18.3333C20.5557 17.8611 21.0974 17.3889 21.6252 16.9167C22.1529 16.4444 22.6529 15.9722 23.1252 15.5H16.8752C17.3474 15.9722 17.8474 16.4444 18.3752 16.9167C18.9029 17.3889 19.4446 17.8611 20.0002 18.3333ZM16.8752 25.5H23.1252C22.6529 25.0278 22.1529 24.5556 21.6252 24.0833C21.0974 23.6111 20.5557 23.1389 20.0002 22.6667C19.4446 23.1389 18.9029 23.6111 18.3752 24.0833C17.8474 24.5556 17.3474 25.0278 16.8752 25.5ZM12.4168 32.1667H27.5835C27.3613 31.5556 27.1182 30.9792 26.8543 30.4375C26.5904 29.8958 26.2779 29.3611 25.9168 28.8333H14.0835C13.7224 29.3611 13.4099 29.8889 13.146 30.4167C12.8821 30.9444 12.6391 31.5278 12.4168 32.1667Z" fill="#F3F7FE"/>
</svg>
