<svg width="80" height="81" viewBox="0 0 80 81" fill="none" xmlns="http://www.w3.org/2000/svg">
<path d="M16.6667 73.8333C16.6667 66.1111 18.2779 59.8472 21.5001 55.0417C24.7223 50.2361 29.1667 45.3889 34.8334 40.5C29.1667 35.6111 24.7223 30.7639 21.5001 25.9583C18.2779 21.1528 16.6667 14.8889 16.6667 7.16667V6.33333C16.6667 5.38889 16.9862 4.59722 17.6251 3.95833C18.264 3.31944 19.0556 3 20.0001 3C20.9445 3 21.7362 3.31944 22.3751 3.95833C23.014 4.59722 23.3334 5.38889 23.3334 6.33333V7.16667C23.3334 7.77778 23.3473 8.34722 23.3751 8.875C23.4029 9.40278 23.4445 9.94444 23.5001 10.5H56.5001C56.5556 9.94444 56.5973 9.40278 56.6251 8.875C56.6529 8.34722 56.6667 7.77778 56.6667 7.16667V6.33333C56.6667 5.38889 56.9862 4.59722 57.6251 3.95833C58.264 3.31944 59.0556 3 60.0001 3C60.9445 3 61.7362 3.31944 62.3751 3.95833C63.014 4.59722 63.3334 5.38889 63.3334 6.33333V7.16667C63.3334 14.8889 61.7223 21.1528 58.5001 25.9583C55.2779 30.7639 50.8334 35.6111 45.1667 40.5C50.8334 45.3889 55.2779 50.2361 58.5001 55.0417C61.7223 59.8472 63.3334 66.1111 63.3334 73.8333V74.6667C63.3334 75.6111 63.014 76.4028 62.3751 77.0417C61.7362 77.6806 60.9445 78 60.0001 78C59.0556 78 58.264 77.6806 57.6251 77.0417C56.9862 76.4028 56.6667 75.6111 56.6667 74.6667V73.8333C56.6667 73.2222 56.6529 72.6528 56.6251 72.125C56.5973 71.5972 56.5556 71.0556 56.5001 70.5H23.5001C23.4445 71.0556 23.4029 71.5972 23.3751 72.125C23.3473 72.6528 23.3334 73.2222 23.3334 73.8333V74.6667C23.3334 75.6111 23.014 76.4028 22.3751 77.0417C21.7362 77.6806 20.9445 78 20.0001 78C19.0556 78 18.264 77.6806 17.6251 77.0417C16.9862 76.4028 16.6667 75.6111 16.6667 74.6667V73.8333ZM28.1667 23.8333H51.8334C52.5556 22.7778 53.1806 21.7222 53.7084 20.6667C54.2362 19.6111 54.7223 18.4444 55.1667 17.1667H24.8334C25.2779 18.3889 25.764 19.5417 26.2917 20.625C26.8195 21.7083 27.4445 22.7778 28.1667 23.8333ZM40.0001 36.1667C41.1112 35.2222 42.1945 34.2778 43.2501 33.3333C44.3056 32.3889 45.3056 31.4444 46.2501 30.5H33.7501C34.6945 31.4444 35.6945 32.3889 36.7501 33.3333C37.8056 34.2778 38.889 35.2222 40.0001 36.1667ZM33.7501 50.5H46.2501C45.3056 49.5556 44.3056 48.6111 43.2501 47.6667C42.1945 46.7222 41.1112 45.7778 40.0001 44.8333C38.889 45.7778 37.8056 46.7222 36.7501 47.6667C35.6945 48.6111 34.6945 49.5556 33.7501 50.5ZM24.8334 63.8333H55.1667C54.7223 62.6111 54.2362 61.4583 53.7084 60.375C53.1806 59.2917 52.5556 58.2222 51.8334 57.1667H28.1667C27.4445 58.2222 26.8195 59.2778 26.2917 60.3333C25.764 61.3889 25.2779 62.5556 24.8334 63.8333Z" fill="#03045E"/>
</svg>
