<svg width="20" height="20" viewBox="0 0 20 20" fill="none" xmlns="http://www.w3.org/2000/svg">
<path d="M9.99984 12.4792C9.88873 12.4792 9.78456 12.4618 9.68734 12.4271C9.59012 12.3924 9.49984 12.3333 9.4165 12.25L5.58317 8.41666C5.43039 8.26388 5.354 8.06944 5.354 7.83333C5.354 7.59722 5.43039 7.40277 5.58317 7.24999C5.73595 7.09722 5.93039 7.02083 6.1665 7.02083C6.40262 7.02083 6.59706 7.09722 6.74984 7.24999L9.99984 10.5L13.2498 7.24999C13.4026 7.09722 13.5971 7.02083 13.8332 7.02083C14.0693 7.02083 14.2637 7.09722 14.4165 7.24999C14.5693 7.40277 14.6457 7.59722 14.6457 7.83333C14.6457 8.06944 14.5693 8.26388 14.4165 8.41666L10.5832 12.25C10.4998 12.3333 10.4096 12.3924 10.3123 12.4271C10.2151 12.4618 10.1109 12.4792 9.99984 12.4792Z" fill="#5F6368"/>
</svg>
