<svg width="20" height="20" viewBox="0 0 20 20" fill="none" xmlns="http://www.w3.org/2000/svg">
<path d="M9.99984 7.52084C9.88873 7.52084 9.78456 7.5382 9.68734 7.57292C9.59012 7.60764 9.49984 7.66667 9.4165 7.75001L5.58317 11.5833C5.43039 11.7361 5.354 11.9306 5.354 12.1667C5.354 12.4028 5.43039 12.5972 5.58317 12.75C5.73595 12.9028 5.93039 12.9792 6.1665 12.9792C6.40262 12.9792 6.59706 12.9028 6.74984 12.75L9.99984 9.50001L13.2498 12.75C13.4026 12.9028 13.5971 12.9792 13.8332 12.9792C14.0693 12.9792 14.2637 12.9028 14.4165 12.75C14.5693 12.5972 14.6457 12.4028 14.6457 12.1667C14.6457 11.9306 14.5693 11.7361 14.4165 11.5833L10.5832 7.75001C10.4998 7.66667 10.4096 7.60764 10.3123 7.57292C10.2151 7.5382 10.1109 7.52084 9.99984 7.52084Z" fill="#03045E"/>
</svg>
