<svg width="12" height="12" viewBox="0 0 12 12" fill="none" xmlns="http://www.w3.org/2000/svg">
<path d="M4.5 8.5C4.35833 8.5 4.23958 8.45208 4.14375 8.35625C4.04792 8.26042 4 8.14167 4 8C4 7.85833 4.04792 7.73958 4.14375 7.64375C4.23958 7.54792 4.35833 7.5 4.5 7.5H5C5.14167 7.5 5.26042 7.54792 5.35625 7.64375C5.45208 7.73958 5.5 7.85833 5.5 8C5.5 8.14167 5.45208 8.26042 5.35625 8.35625C5.26042 8.45208 5.14167 8.5 5 8.5H4.5ZM4 11C3.30833 11 2.71875 10.7562 2.23125 10.2687C1.74375 9.78125 1.5 9.19167 1.5 8.5V4C1.225 4 0.989583 3.90208 0.79375 3.70625C0.597917 3.51042 0.5 3.275 0.5 3V2C0.5 1.725 0.597917 1.48958 0.79375 1.29375C0.989583 1.09792 1.225 1 1.5 1H6.5C6.775 1 7.01042 1.09792 7.20625 1.29375C7.40208 1.48958 7.5 1.725 7.5 2V3C7.5 3.275 7.40208 3.51042 7.20625 3.70625C7.01042 3.90208 6.775 4 6.5 4V5.5C6.5 5.775 6.40208 6.01042 6.20625 6.20625C6.01042 6.40208 5.775 6.5 5.5 6.5H4.5C4.35833 6.5 4.23958 6.45208 4.14375 6.35625C4.04792 6.26042 4 6.14167 4 6C4 5.85833 4.04792 5.73958 4.14375 5.64375C4.23958 5.54792 4.35833 5.5 4.5 5.5H5.5V4H2.5V8.5C2.5 8.91667 2.64583 9.27083 2.9375 9.5625C3.22917 9.85417 3.58333 10 4 10C4.15 10 4.29375 9.97917 4.43125 9.9375C4.56875 9.89583 4.69583 9.8375 4.8125 9.7625C4.92083 9.69583 5.0375 9.67917 5.1625 9.7125C5.2875 9.74583 5.38333 9.82083 5.45 9.9375C5.525 10.0542 5.54583 10.1812 5.5125 10.3187C5.47917 10.4562 5.40417 10.5625 5.2875 10.6375C5.09583 10.7542 4.89375 10.8437 4.68125 10.9062C4.46875 10.9687 4.24167 11 4 11ZM1.5 3H6.5V2H1.5V3ZM8.25 9.5C8.6 9.5 8.89583 9.37917 9.1375 9.1375C9.37917 8.89583 9.5 8.6 9.5 8.25C9.5 7.9 9.37917 7.60417 9.1375 7.3625C8.89583 7.12083 8.6 7 8.25 7C7.9 7 7.60417 7.12083 7.3625 7.3625C7.12083 7.60417 7 7.9 7 8.25C7 8.6 7.12083 8.89583 7.3625 9.1375C7.60417 9.37917 7.9 9.5 8.25 9.5ZM8.25 10.5C7.625 10.5 7.09375 10.2812 6.65625 9.84375C6.21875 9.40625 6 8.875 6 8.25C6 7.625 6.21875 7.09375 6.65625 6.65625C7.09375 6.21875 7.625 6 8.25 6C8.875 6 9.40625 6.21875 9.84375 6.65625C10.2812 7.09375 10.5 7.625 10.5 8.25C10.5 8.46667 10.4708 8.675 10.4125 8.875C10.3542 9.075 10.2667 9.26667 10.15 9.45L11.15 10.45C11.2417 10.5417 11.2875 10.6583 11.2875 10.8C11.2875 10.9417 11.2417 11.0583 11.15 11.15C11.0583 11.2417 10.9417 11.2875 10.8 11.2875C10.6583 11.2875 10.5417 11.2417 10.45 11.15L9.45 10.15C9.26667 10.2667 9.075 10.3542 8.875 10.4125C8.675 10.4708 8.46667 10.5 8.25 10.5Z" fill="#F3F7FE"/>
</svg>
