<svg width="35" height="35" viewBox="0 0 35 35" fill="none" xmlns="http://www.w3.org/2000/svg">
<path d="M13.1252 24.7917C12.712 24.7917 12.3656 24.6519 12.0861 24.3724C11.8066 24.0929 11.6668 23.7465 11.6668 23.3333C11.6668 22.9201 11.8066 22.5738 12.0861 22.2943C12.3656 22.0147 12.712 21.875 13.1252 21.875H14.5835C14.9967 21.875 15.343 22.0147 15.6226 22.2943C15.9021 22.5738 16.0418 22.9201 16.0418 23.3333C16.0418 23.7465 15.9021 24.0929 15.6226 24.3724C15.343 24.6519 14.9967 24.7917 14.5835 24.7917H13.1252ZM11.6668 32.0833C9.64947 32.0833 7.92985 31.3724 6.50798 29.9505C5.0861 28.5286 4.37516 26.809 4.37516 24.7917V11.6667C3.57308 11.6667 2.88645 11.3811 2.31527 10.8099C1.74409 10.2387 1.4585 9.55207 1.4585 8.74999V5.83332C1.4585 5.03124 1.74409 4.34461 2.31527 3.77343C2.88645 3.20225 3.57308 2.91666 4.37516 2.91666H18.9585C19.7606 2.91666 20.4472 3.20225 21.0184 3.77343C21.5896 4.34461 21.8752 5.03124 21.8752 5.83332V8.74999C21.8752 9.55207 21.5896 10.2387 21.0184 10.8099C20.4472 11.3811 19.7606 11.6667 18.9585 11.6667V16.0417C18.9585 16.8437 18.6729 17.5304 18.1017 18.1016C17.5305 18.6727 16.8439 18.9583 16.0418 18.9583H13.1252C12.712 18.9583 12.3656 18.8186 12.0861 18.5391C11.8066 18.2595 11.6668 17.9132 11.6668 17.5C11.6668 17.0868 11.8066 16.7404 12.0861 16.4609C12.3656 16.1814 12.712 16.0417 13.1252 16.0417H16.0418V11.6667H7.29183V24.7917C7.29183 26.0069 7.71718 27.0399 8.56787 27.8906C9.41857 28.7413 10.4516 29.1667 11.6668 29.1667C12.1043 29.1667 12.5236 29.1059 12.9246 28.9844C13.3257 28.8628 13.6963 28.6927 14.0366 28.4739C14.3526 28.2795 14.6929 28.2309 15.0575 28.3281C15.422 28.4253 15.7016 28.6441 15.896 28.9844C16.1147 29.3246 16.1755 29.6953 16.0783 30.0963C15.9811 30.4974 15.7623 30.8073 15.422 31.026C14.863 31.3663 14.2736 31.6276 13.6538 31.8099C13.034 31.9922 12.3717 32.0833 11.6668 32.0833ZM4.37516 8.74999H18.9585V5.83332H4.37516V8.74999ZM24.0627 27.7083C25.0835 27.7083 25.9463 27.3559 26.6512 26.651C27.3561 25.9462 27.7085 25.0833 27.7085 24.0625C27.7085 23.0417 27.3561 22.1788 26.6512 21.4739C25.9463 20.7691 25.0835 20.4167 24.0627 20.4167C23.0418 20.4167 22.179 20.7691 21.4741 21.4739C20.7693 22.1788 20.4168 23.0417 20.4168 24.0625C20.4168 25.0833 20.7693 25.9462 21.4741 26.651C22.179 27.3559 23.0418 27.7083 24.0627 27.7083ZM24.0627 30.625C22.2397 30.625 20.6903 29.987 19.4142 28.7109C18.1382 27.4349 17.5002 25.8854 17.5002 24.0625C17.5002 22.2396 18.1382 20.6901 19.4142 19.4141C20.6903 18.138 22.2397 17.5 24.0627 17.5C25.8856 17.5 27.4351 18.138 28.7111 19.4141C29.9871 20.6901 30.6252 22.2396 30.6252 24.0625C30.6252 24.6944 30.5401 25.3021 30.37 25.8854C30.1998 26.4687 29.9446 27.0278 29.6043 27.5625L32.521 30.4792C32.7884 30.7465 32.922 31.0868 32.922 31.5C32.922 31.9132 32.7884 32.2535 32.521 32.5208C32.2536 32.7882 31.9134 32.9219 31.5002 32.9219C31.087 32.9219 30.7467 32.7882 30.4793 32.5208L27.5627 29.6042C27.0279 29.9444 26.4689 30.1996 25.8856 30.3698C25.3022 30.5399 24.6946 30.625 24.0627 30.625Z" fill="#03045E"/>
</svg>
