<svg width="23" height="22" viewBox="0 0 23 22" fill="none" xmlns="http://www.w3.org/2000/svg">
<path d="M9.39486 14.6667C7.72958 14.6667 6.3202 14.0899 5.16673 12.9365C4.01326 11.783 3.43652 10.3736 3.43652 8.70833C3.43652 7.04306 4.01326 5.63368 5.16673 4.48021C6.3202 3.32674 7.72958 2.75 9.39486 2.75C11.0601 2.75 12.4695 3.32674 13.623 4.48021C14.7765 5.63368 15.3532 7.04306 15.3532 8.70833C15.3532 9.38056 15.2462 10.0146 15.0324 10.6104C14.8185 11.2063 14.5282 11.7333 14.1615 12.1917L19.2949 17.325C19.4629 17.4931 19.5469 17.7069 19.5469 17.9667C19.5469 18.2264 19.4629 18.4403 19.2949 18.6083C19.1268 18.7764 18.9129 18.8604 18.6532 18.8604C18.3935 18.8604 18.1796 18.7764 18.0115 18.6083L12.8782 13.475C12.4199 13.8417 11.8928 14.1319 11.2969 14.3458C10.7011 14.5597 10.0671 14.6667 9.39486 14.6667ZM9.39486 12.8333C10.5407 12.8333 11.5147 12.4323 12.3167 11.6302C13.1188 10.8281 13.5199 9.85417 13.5199 8.70833C13.5199 7.5625 13.1188 6.58854 12.3167 5.78646C11.5147 4.98438 10.5407 4.58333 9.39486 4.58333C8.24902 4.58333 7.27507 4.98438 6.47298 5.78646C5.6709 6.58854 5.26986 7.5625 5.26986 8.70833C5.26986 9.85417 5.6709 10.8281 6.47298 11.6302C7.27507 12.4323 8.24902 12.8333 9.39486 12.8333Z" fill="#F3F7FE"/>
</svg>
