<svg width="24" height="24" viewBox="0 0 24 24" fill="none" xmlns="http://www.w3.org/2000/svg">
<path d="M8.9998 13C8.71647 13 8.47897 12.9042 8.2873 12.7125C8.09564 12.5208 7.9998 12.2833 7.9998 12V5.825L6.1248 7.7C5.94147 7.88334 5.7123 7.975 5.4373 7.975C5.1623 7.975 4.9248 7.88334 4.7248 7.7C4.5248 7.5 4.4248 7.2625 4.4248 6.9875C4.4248 6.7125 4.5248 6.475 4.7248 6.275L8.2998 2.7C8.3998 2.6 8.50814 2.52917 8.6248 2.4875C8.74147 2.44584 8.86647 2.425 8.9998 2.425C9.13314 2.425 9.25814 2.44584 9.3748 2.4875C9.49147 2.52917 9.5998 2.6 9.6998 2.7L13.2998 6.3C13.4998 6.5 13.5956 6.73334 13.5873 7C13.579 7.26667 13.4748 7.5 13.2748 7.7C13.0748 7.88334 12.8415 7.97917 12.5748 7.9875C12.3081 7.99584 12.0748 7.9 11.8748 7.7L9.9998 5.825V12C9.9998 12.2833 9.90397 12.5208 9.7123 12.7125C9.52064 12.9042 9.28314 13 8.9998 13ZM14.9998 21.575C14.8665 21.575 14.7415 21.5542 14.6248 21.5125C14.5081 21.4708 14.3998 21.4 14.2998 21.3L10.6998 17.7C10.4998 17.5 10.404 17.2667 10.4123 17C10.4206 16.7333 10.5248 16.5 10.7248 16.3C10.9248 16.1167 11.1581 16.0208 11.4248 16.0125C11.6915 16.0042 11.9248 16.1 12.1248 16.3L13.9998 18.175V12C13.9998 11.7167 14.0956 11.4792 14.2873 11.2875C14.479 11.0958 14.7165 11 14.9998 11C15.2831 11 15.5206 11.0958 15.7123 11.2875C15.904 11.4792 15.9998 11.7167 15.9998 12V18.175L17.8748 16.3C18.0581 16.1167 18.2873 16.025 18.5623 16.025C18.8373 16.025 19.0748 16.1167 19.2748 16.3C19.4748 16.5 19.5748 16.7375 19.5748 17.0125C19.5748 17.2875 19.4748 17.525 19.2748 17.725L15.6998 21.3C15.5998 21.4 15.4915 21.4708 15.3748 21.5125C15.2581 21.5542 15.1331 21.575 14.9998 21.575Z" fill="#5F6368"/>
</svg>
