<svg width="20" height="20" viewBox="0 0 20 20" fill="none" xmlns="http://www.w3.org/2000/svg">
<path d="M10.0003 15.0833L11.9378 13.1458C12.1045 12.9792 12.3059 12.8958 12.542 12.8958C12.7781 12.8958 12.9795 12.9792 13.1462 13.1458C13.3128 13.3125 13.3962 13.5139 13.3962 13.75C13.3962 13.9861 13.3128 14.1875 13.1462 14.3542L10.5837 16.9167C10.5003 17 10.41 17.059 10.3128 17.0938C10.2156 17.1285 10.1114 17.1458 10.0003 17.1458C9.88921 17.1458 9.78505 17.1285 9.68783 17.0938C9.5906 17.059 9.50033 17 9.41699 16.9167L6.85449 14.3542C6.68783 14.1875 6.60449 13.9861 6.60449 13.75C6.60449 13.5139 6.68783 13.3125 6.85449 13.1458C7.02116 12.9792 7.22255 12.8958 7.45866 12.8958C7.69477 12.8958 7.89616 12.9792 8.06283 13.1458L10.0003 15.0833ZM10.0003 5L8.06283 6.9375C7.89616 7.10417 7.69477 7.1875 7.45866 7.1875C7.22255 7.1875 7.02116 7.10417 6.85449 6.9375C6.68783 6.77083 6.60449 6.56944 6.60449 6.33333C6.60449 6.09722 6.68783 5.89583 6.85449 5.72917L9.41699 3.16667C9.50033 3.08333 9.5906 3.02431 9.68783 2.98958C9.78505 2.95486 9.88921 2.9375 10.0003 2.9375C10.1114 2.9375 10.2156 2.95486 10.3128 2.98958C10.41 3.02431 10.5003 3.08333 10.5837 3.16667L13.1462 5.72917C13.3128 5.89583 13.3962 6.09722 13.3962 6.33333C13.3962 6.56944 13.3128 6.77083 13.1462 6.9375C12.9795 7.10417 12.7781 7.1875 12.542 7.1875C12.3059 7.1875 12.1045 7.10417 11.9378 6.9375L10.0003 5Z" fill="#5F6368"/>
</svg>
