<svg width="35" height="35" viewBox="0 0 35 35" fill="none" xmlns="http://www.w3.org/2000/svg">
<path d="M17.5 30.625C15.6771 30.625 13.9696 30.2786 12.3776 29.5859C10.7856 28.8932 9.40017 27.9575 8.22135 26.7786C7.04253 25.5998 6.10677 24.2144 5.41406 22.6224C4.72135 21.0304 4.375 19.3229 4.375 17.5C4.375 15.6771 4.72135 13.9696 5.41406 12.3776C6.10677 10.7856 7.04253 9.40017 8.22135 8.22135C9.40017 7.04253 10.7856 6.10677 12.3776 5.41406C13.9696 4.72135 15.6771 4.375 17.5 4.375C19.4931 4.375 21.3828 4.80035 23.1693 5.65104C24.9557 6.50174 26.4688 7.70486 27.7083 9.26042V7.29167C27.7083 6.87847 27.8481 6.53212 28.1276 6.2526C28.4071 5.97309 28.7535 5.83333 29.1667 5.83333C29.5799 5.83333 29.9262 5.97309 30.2057 6.2526C30.4852 6.53212 30.625 6.87847 30.625 7.29167V13.125C30.625 13.5382 30.4852 13.8845 30.2057 14.1641C29.9262 14.4436 29.5799 14.5833 29.1667 14.5833H23.3333C22.9201 14.5833 22.5738 14.4436 22.2943 14.1641C22.0148 13.8845 21.875 13.5382 21.875 13.125C21.875 12.7118 22.0148 12.3655 22.2943 12.0859C22.5738 11.8064 22.9201 11.6667 23.3333 11.6667H25.8854C24.8889 10.3056 23.6615 9.23611 22.2031 8.45833C20.7448 7.68056 19.1771 7.29167 17.5 7.29167C14.6562 7.29167 12.2439 8.28212 10.263 10.263C8.28212 12.2439 7.29167 14.6562 7.29167 17.5C7.29167 20.3437 8.28212 22.7561 10.263 24.737C12.2439 26.7179 14.6562 27.7083 17.5 27.7083C19.809 27.7083 21.875 27.0156 23.6979 25.6302C25.5208 24.2448 26.724 22.4583 27.3073 20.2708C27.4288 19.8819 27.6476 19.5903 27.9635 19.3958C28.2795 19.2014 28.6319 19.1285 29.0208 19.1771C29.434 19.2257 29.7622 19.4019 30.0052 19.7057C30.2483 20.0095 30.3212 20.3437 30.224 20.7083C29.5191 23.6007 27.9878 25.9766 25.6302 27.8359C23.2726 29.6953 20.5625 30.625 17.5 30.625ZM18.9583 16.9167L22.6042 20.5625C22.8715 20.8299 23.0052 21.1701 23.0052 21.5833C23.0052 21.9965 22.8715 22.3368 22.6042 22.6042C22.3368 22.8715 21.9965 23.0052 21.5833 23.0052C21.1701 23.0052 20.8299 22.8715 20.5625 22.6042L16.4792 18.5208C16.3333 18.375 16.224 18.2109 16.151 18.0286C16.0781 17.8464 16.0417 17.658 16.0417 17.4635V11.6667C16.0417 11.2535 16.1814 10.9071 16.4609 10.6276C16.7405 10.3481 17.0868 10.2083 17.5 10.2083C17.9132 10.2083 18.2595 10.3481 18.5391 10.6276C18.8186 10.9071 18.9583 11.2535 18.9583 11.6667V16.9167Z" fill="#03045E"/>
</svg>
