<svg width="30" height="30" viewBox="0 0 30 30" fill="none" xmlns="http://www.w3.org/2000/svg">
<path d="M15 30C10.8056 30 7.25694 29.3542 4.35417 28.0625C1.45139 26.7708 0 25.1944 0 23.3333V6.66667C0 4.83333 1.46528 3.26389 4.39583 1.95833C7.32639 0.652778 10.8611 0 15 0C19.1389 0 22.6736 0.652778 25.6042 1.95833C28.5347 3.26389 30 4.83333 30 6.66667V23.3333C30 25.1944 28.5486 26.7708 25.6458 28.0625C22.7431 29.3542 19.1944 30 15 30ZM15 10.0417C17.4722 10.0417 19.9583 9.6875 22.4583 8.97917C24.9583 8.27083 26.3611 7.51389 26.6667 6.70833C26.3611 5.90278 24.9653 5.13889 22.4792 4.41667C19.9931 3.69444 17.5 3.33333 15 3.33333C12.4722 3.33333 9.99306 3.6875 7.5625 4.39583C5.13194 5.10417 3.72222 5.875 3.33333 6.70833C3.72222 7.54167 5.13194 8.30556 7.5625 9C9.99306 9.69444 12.4722 10.0417 15 10.0417ZM15 18.3333C16.1667 18.3333 17.2917 18.2778 18.375 18.1667C19.4583 18.0556 20.4931 17.8958 21.4792 17.6875C22.4653 17.4792 23.3958 17.2222 24.2708 16.9167C25.1458 16.6111 25.9444 16.2639 26.6667 15.875V10.875C25.9444 11.2639 25.1458 11.6111 24.2708 11.9167C23.3958 12.2222 22.4653 12.4792 21.4792 12.6875C20.4931 12.8958 19.4583 13.0556 18.375 13.1667C17.2917 13.2778 16.1667 13.3333 15 13.3333C13.8333 13.3333 12.6944 13.2778 11.5833 13.1667C10.4722 13.0556 9.42361 12.8958 8.4375 12.6875C7.45139 12.4792 6.52778 12.2222 5.66667 11.9167C4.80556 11.6111 4.02778 11.2639 3.33333 10.875V15.875C4.02778 16.2639 4.80556 16.6111 5.66667 16.9167C6.52778 17.2222 7.45139 17.4792 8.4375 17.6875C9.42361 17.8958 10.4722 18.0556 11.5833 18.1667C12.6944 18.2778 13.8333 18.3333 15 18.3333ZM15 26.6667C16.2778 26.6667 17.5764 26.5694 18.8958 26.375C20.2153 26.1806 21.4306 25.9236 22.5417 25.6042C23.6528 25.2847 24.5833 24.9236 25.3333 24.5208C26.0833 24.1181 26.5278 23.7083 26.6667 23.2917V19.2083C25.9444 19.5972 25.1458 19.9444 24.2708 20.25C23.3958 20.5556 22.4653 20.8125 21.4792 21.0208C20.4931 21.2292 19.4583 21.3889 18.375 21.5C17.2917 21.6111 16.1667 21.6667 15 21.6667C13.8333 21.6667 12.6944 21.6111 11.5833 21.5C10.4722 21.3889 9.42361 21.2292 8.4375 21.0208C7.45139 20.8125 6.52778 20.5556 5.66667 20.25C4.80556 19.9444 4.02778 19.5972 3.33333 19.2083V23.3333C3.47222 23.75 3.90972 24.1528 4.64583 24.5417C5.38194 24.9306 6.30556 25.2847 7.41667 25.6042C8.52778 25.9236 9.75 26.1806 11.0833 26.375C12.4167 26.5694 13.7222 26.6667 15 26.6667Z" fill="#03045E"/>
</svg>
