<svg width="56" height="56" viewBox="0 0 56 56" fill="none" xmlns="http://www.w3.org/2000/svg">
<path d="M6.35817 49C5.93039 49 5.5415 48.8931 5.1915 48.6792C4.8415 48.4653 4.56928 48.1833 4.37483 47.8333C4.18039 47.4833 4.07345 47.1042 4.054 46.6958C4.03456 46.2875 4.1415 45.8889 4.37483 45.5L25.9582 8.16667C26.1915 7.77778 26.4929 7.48611 26.8623 7.29167C27.2318 7.09722 27.6109 7 27.9998 7C28.3887 7 28.7679 7.09722 29.1373 7.29167C29.5068 7.48611 29.8082 7.77778 30.0415 8.16667L51.6248 45.5C51.8582 45.8889 51.9651 46.2875 51.9457 46.6958C51.9262 47.1042 51.8193 47.4833 51.6248 47.8333C51.4304 48.1833 51.1582 48.4653 50.8082 48.6792C50.4582 48.8931 50.0693 49 49.6415 49H6.35817ZM10.3832 44.3333H45.6165L27.9998 14L10.3832 44.3333ZM27.9998 42C28.6609 42 29.2151 41.7764 29.6623 41.3292C30.1096 40.8819 30.3332 40.3278 30.3332 39.6667C30.3332 39.0056 30.1096 38.4514 29.6623 38.0042C29.2151 37.5569 28.6609 37.3333 27.9998 37.3333C27.3387 37.3333 26.7846 37.5569 26.3373 38.0042C25.8901 38.4514 25.6665 39.0056 25.6665 39.6667C25.6665 40.3278 25.8901 40.8819 26.3373 41.3292C26.7846 41.7764 27.3387 42 27.9998 42ZM27.9998 35C28.6609 35 29.2151 34.7764 29.6623 34.3292C30.1096 33.8819 30.3332 33.3278 30.3332 32.6667V25.6667C30.3332 25.0056 30.1096 24.4514 29.6623 24.0042C29.2151 23.5569 28.6609 23.3333 27.9998 23.3333C27.3387 23.3333 26.7846 23.5569 26.3373 24.0042C25.8901 24.4514 25.6665 25.0056 25.6665 25.6667V32.6667C25.6665 33.3278 25.8901 33.8819 26.3373 34.3292C26.7846 34.7764 27.3387 35 27.9998 35Z" fill="#DE4848"/>
</svg>
